<mxfile host="drawio-plugin" modified="2024-03-31T11:16:08.442Z" agent="5.0 (Windows NT 10.0; Win64; x64) AppleWebKit/537.36 (KHTML, like Gecko) Chrome/111.0.0.0 Safari/537.36" etag="_lin3HFvsUTfJSmFbUgg" version="20.5.3" type="embed"><diagram id="NECLtsld3TlZ__bHpxo9" name="Page-1"><mxGraphModel dx="305" dy="1356" grid="1" gridSize="10" guides="1" tooltips="1" connect="1" arrows="1" fold="1" page="1" pageScale="1" pageWidth="850" pageHeight="1100" background="#F1FAEE" math="0" shadow="0"><root><mxCell id="0"/><mxCell id="1" parent="0"/><mxCell id="10" value="" style="group;fillColor=#a0522d;fontColor=#ffffff;strokeColor=#6D1F00;" parent="1" vertex="1" connectable="0"><mxGeometry x="310" y="180" width="150" height="90" as="geometry"/></mxCell><mxCell id="3" value="&lt;font style=&quot;font-size: 10px;&quot;&gt;STM32G4主控板&lt;/font&gt;" style="rounded=0;whiteSpace=wrap;html=1;fillColor=#A8DADC;strokeColor=#457B9D;fontColor=#1D3557;" parent="10" vertex="1"><mxGeometry width="150" height="90" as="geometry"/></mxCell><mxCell id="4" value="&lt;font style=&quot;font-size: 9px;&quot;&gt;XT30&lt;/font&gt;" style="rounded=0;whiteSpace=wrap;html=1;fillColor=#e51400;strokeColor=#B20000;fontColor=#ffffff;" parent="10" vertex="1"><mxGeometry x="50.99999999999999" y="70" width="42" height="19.999999999999996" as="geometry"/></mxCell><mxCell id="5" value="&lt;font style=&quot;font-size: 9px;&quot;&gt;CAN3&lt;/font&gt;" style="rounded=0;whiteSpace=wrap;html=1;fillColor=#e3c800;strokeColor=#B09500;fontColor=#000000;" parent="10" vertex="1"><mxGeometry x="56.99999999999999" width="36" height="19.999999999999996" as="geometry"/></mxCell><mxCell id="6" value="&lt;font style=&quot;font-size: 9px;&quot;&gt;CAN1&lt;/font&gt;" style="rounded=0;whiteSpace=wrap;html=1;fillColor=#a0522d;strokeColor=#6D1F00;fontColor=#ffffff;" parent="10" vertex="1"><mxGeometry y="30" width="30" height="20" as="geometry"/></mxCell><mxCell id="7" value="&lt;font style=&quot;font-size: 9px;&quot;&gt;CAN2&lt;/font&gt;" style="rounded=0;whiteSpace=wrap;html=1;fillColor=#0050ef;strokeColor=#001DBC;fontColor=#ffffff;" parent="10" vertex="1"><mxGeometry x="120" y="30" width="30" height="20" as="geometry"/></mxCell><mxCell id="8" value="&lt;font style=&quot;font-size: 9px;&quot;&gt;串口&lt;/font&gt;" style="rounded=0;whiteSpace=wrap;html=1;fillColor=#008a00;strokeColor=#005700;fontColor=#ffffff;" parent="10" vertex="1"><mxGeometry x="120" y="70" width="30" height="20" as="geometry"/></mxCell><mxCell id="9" value="&lt;font style=&quot;font-size: 9px;&quot;&gt;Dbus&lt;/font&gt;" style="rounded=0;whiteSpace=wrap;html=1;fillColor=#1ba1e2;strokeColor=#006EAF;fontColor=#ffffff;" parent="10" vertex="1"><mxGeometry y="70" width="42" height="19.999999999999996" as="geometry"/></mxCell><mxCell id="74" value="GPIO" style="rounded=0;whiteSpace=wrap;html=1;strokeColor=#432D57;fontColor=#ffffff;fillColor=#76608a;" parent="10" vertex="1"><mxGeometry x="0.8799999999999955" width="28.235294117647058" height="16.363636363636367" as="geometry"/></mxCell><mxCell id="15" value="" style="group;fillColor=#e51400;fontColor=#ffffff;strokeColor=#B20000;container=0;" parent="1" vertex="1" connectable="0"><mxGeometry x="320" y="-207.5" width="60" height="50" as="geometry"/></mxCell><mxCell id="18" value="4*驱动轮3508电机+c620电调" style="ellipse;whiteSpace=wrap;html=1;aspect=fixed;strokeColor=#457B9D;fontSize=9;fontColor=#1D3557;fillColor=#A8DADC;" parent="1" vertex="1"><mxGeometry x="30" y="165" width="65" height="65" as="geometry"/></mxCell><mxCell id="27" value="" style="group;fillColor=#0050ef;fontColor=#ffffff;strokeColor=#001DBC;" parent="1" vertex="1" connectable="0"><mxGeometry x="500" y="203.75" width="100" height="42.5" as="geometry"/></mxCell><mxCell id="28" value="中心板" style="rounded=0;whiteSpace=wrap;html=1;strokeColor=#457B9D;fontSize=9;fontColor=#1D3557;fillColor=#A8DADC;" parent="27" vertex="1"><mxGeometry width="100" height="42.5" as="geometry"/></mxCell><mxCell id="29" value="XT30" style="rounded=0;whiteSpace=wrap;html=1;strokeColor=#B20000;fontSize=9;fontColor=#ffffff;fillColor=#e51400;" parent="27" vertex="1"><mxGeometry x="70.83333333333334" width="29.166666666666668" height="42.5" as="geometry"/></mxCell><mxCell id="30" value="CAN" style="rounded=0;whiteSpace=wrap;html=1;strokeColor=#001DBC;fontSize=9;fontColor=#ffffff;fillColor=#0050ef;" parent="27" vertex="1"><mxGeometry width="29.166666666666668" height="42.5" as="geometry"/></mxCell><mxCell id="31" value="电源" style="rounded=1;whiteSpace=wrap;html=1;strokeColor=#B20000;fontSize=9;fontColor=#ffffff;fillColor=#e51400;" parent="1" vertex="1"><mxGeometry x="422.5" y="550" width="75" height="40" as="geometry"/></mxCell><mxCell id="35" value="" style="group" parent="1" vertex="1" connectable="0"><mxGeometry x="420" y="460" width="80" height="40" as="geometry"/></mxCell><mxCell id="32" value="&lt;font style=&quot;font-size: 6px;&quot; color=&quot;#000000&quot;&gt;电源分电板&lt;/font&gt;" style="rounded=0;whiteSpace=wrap;html=1;strokeColor=#457B9D;fontSize=9;fillColor=#A8DADC;" parent="35" vertex="1"><mxGeometry x="5" width="75" height="40" as="geometry"/></mxCell><mxCell id="33" value="&lt;font style=&quot;font-size: 7px;&quot;&gt;XT60&lt;br&gt;/30&lt;/font&gt;" style="rounded=0;whiteSpace=wrap;html=1;strokeColor=#B20000;fontSize=9;fontColor=#ffffff;fillColor=#e51400;" parent="35" vertex="1"><mxGeometry width="20" height="40" as="geometry"/></mxCell><mxCell id="34" value="XT60/&lt;br&gt;30" style="rounded=0;whiteSpace=wrap;html=1;strokeColor=#B20000;fontSize=6;fontColor=#ffffff;fillColor=#e51400;" parent="35" vertex="1"><mxGeometry x="60" width="20" height="40" as="geometry"/></mxCell><mxCell id="36" value="&lt;font style=&quot;font-size: 9px;&quot;&gt;裁判系统主控&lt;/font&gt;" style="rounded=1;whiteSpace=wrap;html=1;" parent="1" vertex="1"><mxGeometry x="295.59000000000003" y="550" width="70" height="30" as="geometry"/></mxCell><mxCell id="37" value="裁判系统RFID" style="rounded=1;whiteSpace=wrap;html=1;fontSize=9;" parent="1" vertex="1"><mxGeometry x="225" y="550" width="70" height="30" as="geometry"/></mxCell><mxCell id="38" value="灯条" style="rounded=1;whiteSpace=wrap;html=1;fontSize=9;" parent="1" vertex="1"><mxGeometry x="155" y="580" width="70" height="30" as="geometry"/></mxCell><mxCell id="39" value="装甲板" style="rounded=1;whiteSpace=wrap;html=1;fontSize=9;" parent="1" vertex="1"><mxGeometry x="155" y="550" width="70" height="30" as="geometry"/></mxCell><mxCell id="41" value="场地定位" style="rounded=1;whiteSpace=wrap;html=1;fontSize=9;" parent="1" vertex="1"><mxGeometry x="70" y="-41.25" width="70" height="30" as="geometry"/></mxCell><mxCell id="43" value="图传" style="rounded=1;whiteSpace=wrap;html=1;fontSize=9;" parent="1" vertex="1"><mxGeometry x="150" y="-40" width="70" height="30" as="geometry"/></mxCell><mxCell id="46" value="" style="group" parent="1" vertex="1" connectable="0"><mxGeometry x="400" y="330" width="70" height="60" as="geometry"/></mxCell><mxCell id="44" value="Gimbal继电器" style="rounded=0;whiteSpace=wrap;html=1;fontSize=9;" parent="46" vertex="1"><mxGeometry width="70" height="38.57142857142858" as="geometry"/></mxCell><mxCell id="45" value="控制信号" style="rounded=0;whiteSpace=wrap;html=1;fontSize=9;fillColor=#e3c800;fontColor=#000000;strokeColor=#B09500;" parent="46" vertex="1"><mxGeometry y="38.57142857142858" width="70" height="21.428571428571427" as="geometry"/></mxCell><mxCell id="47" value="" style="group" parent="1" vertex="1" connectable="0"><mxGeometry x="300" y="330" width="70" height="60" as="geometry"/></mxCell><mxCell id="48" value="Chassis继电器" style="rounded=0;whiteSpace=wrap;html=1;fontSize=9;" parent="47" vertex="1"><mxGeometry width="70" height="38.57142857142858" as="geometry"/></mxCell><mxCell id="49" value="控制信号" style="rounded=0;whiteSpace=wrap;html=1;fontSize=9;fillColor=#e3c800;fontColor=#000000;strokeColor=#B09500;" parent="47" vertex="1"><mxGeometry y="38.57142857142858" width="70" height="21.428571428571427" as="geometry"/></mxCell><mxCell id="62" value="末端yaw，pitch，roll，横移4*2006电机+c610电调" style="ellipse;whiteSpace=wrap;html=1;aspect=fixed;strokeColor=#457B9D;fontSize=9;fontColor=#1D3557;fillColor=#A8DADC;" parent="1" vertex="1"><mxGeometry x="157.5" y="-128.75" width="62.5" height="62.5" as="geometry"/></mxCell><mxCell id="65" value="2*夹矿2006电机+c610电调" style="ellipse;whiteSpace=wrap;html=1;aspect=fixed;strokeColor=#457B9D;fontSize=9;fontColor=#1D3557;fillColor=#A8DADC;" parent="1" vertex="1"><mxGeometry x="30" y="45" width="65" height="65" as="geometry"/></mxCell><mxCell id="66" value="&lt;font style=&quot;font-size: 8px;&quot;&gt;dt7接收机&lt;/font&gt;" style="rounded=0;whiteSpace=wrap;html=1;strokeColor=#314354;strokeWidth=2;fillColor=#647687;fontColor=#ffffff;" parent="1" vertex="1"><mxGeometry x="250" y="260" width="40" height="10" as="geometry"/></mxCell><mxCell id="67" value="&lt;font style=&quot;font-size: 8px;&quot;&gt;吸盘继电器&lt;/font&gt;" style="rounded=0;whiteSpace=wrap;html=1;strokeColor=#314354;strokeWidth=2;fillColor=#647687;fontColor=#ffffff;" parent="1" vertex="1"><mxGeometry x="245" y="180" width="50" height="10" as="geometry"/></mxCell><mxCell id="68" value="&lt;font style=&quot;font-size: 9px;&quot;&gt;吸盘继电器&lt;/font&gt;" style="rounded=0;whiteSpace=wrap;html=1;strokeColor=#314354;strokeWidth=2;fillColor=#647687;fontColor=#ffffff;" parent="1" vertex="1"><mxGeometry x="344.40999999999997" y="-250" width="50" height="20" as="geometry"/></mxCell><mxCell id="76" value="" style="group" parent="1" vertex="1" connectable="0"><mxGeometry x="250" y="445" width="120" height="70" as="geometry"/></mxCell><mxCell id="50" value="裁判系统电源管理" style="rounded=0;whiteSpace=wrap;html=1;fontSize=9;" parent="76" vertex="1"><mxGeometry width="120" height="70" as="geometry"/></mxCell><mxCell id="52" value="供电" style="rounded=0;whiteSpace=wrap;html=1;fontSize=9;fillColor=#e51400;fontColor=#ffffff;strokeColor=#B20000;" parent="76" vertex="1"><mxGeometry x="90" y="50" width="30" height="20" as="geometry"/></mxCell><mxCell id="53" value="Chassis" style="rounded=0;whiteSpace=wrap;html=1;fontSize=9;fillColor=#e51400;fontColor=#ffffff;strokeColor=#B20000;" parent="76" vertex="1"><mxGeometry width="40" height="20" as="geometry"/></mxCell><mxCell id="54" value="Gimbal" style="rounded=0;whiteSpace=wrap;html=1;fontSize=9;fillColor=#e51400;fontColor=#ffffff;strokeColor=#B20000;" parent="76" vertex="1"><mxGeometry x="80" width="40" height="20" as="geometry"/></mxCell><mxCell id="79" value="" style="endArrow=none;html=1;rounded=0;fontSize=7;fillColor=#e51400;strokeColor=#E51400;strokeWidth=3;" parent="1" edge="1"><mxGeometry width="50" height="50" relative="1" as="geometry"><mxPoint x="430" y="410" as="sourcePoint"/><mxPoint x="390" y="410" as="targetPoint"/><Array as="points"/></mxGeometry></mxCell><mxCell id="80" value="" style="endArrow=none;html=1;rounded=0;fontSize=7;fillColor=#e51400;strokeColor=#E51400;strokeWidth=3;" parent="1" edge="1"><mxGeometry width="50" height="50" relative="1" as="geometry"><mxPoint x="429.9999999999999" y="460" as="sourcePoint"/><mxPoint x="430" y="410" as="targetPoint"/><Array as="points"/></mxGeometry></mxCell><mxCell id="81" value="" style="endArrow=none;html=1;rounded=0;fontSize=7;fillColor=#e51400;strokeColor=#E51400;strokeWidth=3;exitX=1;exitY=0.5;exitDx=0;exitDy=0;entryX=0;entryY=0.5;entryDx=0;entryDy=0;" parent="1" source="48" target="44" edge="1"><mxGeometry width="50" height="50" relative="1" as="geometry"><mxPoint x="389.9999999999999" y="375" as="sourcePoint"/><mxPoint x="400" y="350" as="targetPoint"/><Array as="points"/></mxGeometry></mxCell><mxCell id="84" value="" style="endArrow=none;html=1;rounded=0;fontSize=7;fillColor=#e51400;strokeColor=#E51400;strokeWidth=3;" parent="1" edge="1"><mxGeometry width="50" height="50" relative="1" as="geometry"><mxPoint x="489.9999999999999" y="550" as="sourcePoint"/><mxPoint x="490" y="495" as="targetPoint"/><Array as="points"/></mxGeometry></mxCell><mxCell id="85" value="" style="endArrow=none;html=1;rounded=0;fontSize=7;fillColor=#e51400;strokeColor=#E51400;strokeWidth=3;" parent="1" edge="1"><mxGeometry width="50" height="50" relative="1" as="geometry"><mxPoint x="390.18" y="410" as="sourcePoint"/><mxPoint x="390" y="350" as="targetPoint"/><Array as="points"/></mxGeometry></mxCell><mxCell id="77" value="" style="endArrow=none;html=1;rounded=0;fontSize=7;fillColor=#e3c800;strokeColor=#B09500;strokeWidth=3;" parent="1" edge="1"><mxGeometry width="50" height="50" relative="1" as="geometry"><mxPoint x="269.75" y="445" as="sourcePoint"/><mxPoint x="320" y="390" as="targetPoint"/><Array as="points"><mxPoint x="270" y="410"/><mxPoint x="320" y="410"/></Array></mxGeometry></mxCell><mxCell id="86" value="" style="endArrow=none;html=1;rounded=0;fontSize=7;fillColor=#e3c800;strokeColor=#B09500;strokeWidth=3;" parent="1" edge="1"><mxGeometry width="50" height="50" relative="1" as="geometry"><mxPoint x="349.75" y="445" as="sourcePoint"/><mxPoint x="450" y="390" as="targetPoint"/><Array as="points"><mxPoint x="350" y="420"/><mxPoint x="450" y="420"/></Array></mxGeometry></mxCell><mxCell id="87" value="" style="endArrow=none;html=1;rounded=0;fontSize=7;fillColor=#e51400;strokeColor=#E51400;strokeWidth=3;exitX=1;exitY=0.75;exitDx=0;exitDy=0;" parent="1" source="52" edge="1"><mxGeometry width="50" height="50" relative="1" as="geometry"><mxPoint x="429.9999999999999" y="550" as="sourcePoint"/><mxPoint x="430" y="500" as="targetPoint"/><Array as="points"><mxPoint x="430" y="510"/></Array></mxGeometry></mxCell><mxCell id="88" value="" style="endArrow=none;html=1;rounded=0;fontSize=7;fillColor=#e51400;strokeColor=#E51400;strokeWidth=3;exitX=0;exitY=0.5;exitDx=0;exitDy=0;entryX=0.5;entryY=1;entryDx=0;entryDy=0;" parent="1" source="48" target="24" edge="1"><mxGeometry width="50" height="50" relative="1" as="geometry"><mxPoint x="229.9999999999999" y="295" as="sourcePoint"/><mxPoint x="230" y="245" as="targetPoint"/><Array as="points"><mxPoint x="163" y="350"/></Array></mxGeometry></mxCell><mxCell id="89" value="" style="endArrow=none;html=1;rounded=0;fontSize=7;fillColor=#e51400;strokeColor=#E51400;strokeWidth=3;exitX=1;exitY=0.5;exitDx=0;exitDy=0;" parent="1" source="44" edge="1"><mxGeometry width="50" height="50" relative="1" as="geometry"><mxPoint x="660" y="349.2857142857142" as="sourcePoint"/><mxPoint x="590" y="245" as="targetPoint"/><Array as="points"><mxPoint x="590" y="349"/></Array></mxGeometry></mxCell><mxCell id="22" value="中心板" style="rounded=0;whiteSpace=wrap;html=1;strokeColor=#457B9D;fontSize=9;fontColor=#1D3557;fillColor=#A8DADC;" parent="1" vertex="1"><mxGeometry x="150" y="203.75" width="90" height="40" as="geometry"/></mxCell><mxCell id="24" value="XT30" style="rounded=0;whiteSpace=wrap;html=1;strokeColor=#B20000;fontSize=9;fontColor=#ffffff;fillColor=#e51400;" parent="1" vertex="1"><mxGeometry x="150" y="203.75" width="26.249999999999996" height="40" as="geometry"/></mxCell><mxCell id="25" value="CAN" style="rounded=0;whiteSpace=wrap;html=1;strokeColor=#6D1F00;fontSize=9;fontColor=#ffffff;fillColor=#a0522d;" parent="1" vertex="1"><mxGeometry x="213.75" y="203.75" width="26.249999999999996" height="40" as="geometry"/></mxCell><mxCell id="91" value="" style="endArrow=none;html=1;strokeColor=#A0522D;strokeWidth=3;fontSize=7;exitX=0;exitY=0.5;exitDx=0;exitDy=0;entryX=1;entryY=0.406;entryDx=0;entryDy=0;entryPerimeter=0;fillColor=#a0522d;rounded=0;" parent="1" source="6" target="25" edge="1"><mxGeometry width="50" height="50" relative="1" as="geometry"><mxPoint x="330" y="270" as="sourcePoint"/><mxPoint x="380" y="220" as="targetPoint"/></mxGeometry></mxCell><mxCell id="92" value="" style="endArrow=none;html=1;rounded=0;fontSize=7;fillColor=#e51400;strokeColor=#E51400;strokeWidth=3;entryX=0;entryY=0.25;entryDx=0;entryDy=0;exitX=0.97;exitY=0.735;exitDx=0;exitDy=0;exitPerimeter=0;" parent="1" source="18" target="24" edge="1"><mxGeometry width="50" height="50" relative="1" as="geometry"><mxPoint x="310" y="359.2857142857142" as="sourcePoint"/><mxPoint x="173.1249999999999" y="253.75" as="targetPoint"/><Array as="points"/></mxGeometry></mxCell><mxCell id="96" value="" style="endArrow=none;html=1;rounded=0;strokeColor=#A0522D;strokeWidth=3;fontSize=7;exitX=0.25;exitY=0;exitDx=0;exitDy=0;entryX=0.968;entryY=0.36;entryDx=0;entryDy=0;fillColor=#a0522d;entryPerimeter=0;" parent="1" source="25" target="65" edge="1"><mxGeometry width="50" height="50" relative="1" as="geometry"><mxPoint x="220" y="120.00999999999999" as="sourcePoint"/><mxPoint x="150" y="120" as="targetPoint"/><Array as="points"><mxPoint x="220" y="70"/></Array></mxGeometry></mxCell><mxCell id="97" value="" style="endArrow=none;html=1;rounded=0;strokeColor=#A0522D;strokeWidth=3;fontSize=7;exitX=0;exitY=0.5;exitDx=0;exitDy=0;fillColor=#a0522d;entryX=0.982;entryY=0.386;entryDx=0;entryDy=0;entryPerimeter=0;" parent="1" target="18" edge="1"><mxGeometry width="50" height="50" relative="1" as="geometry"><mxPoint x="220" y="190.01" as="sourcePoint"/><mxPoint x="120" y="190" as="targetPoint"/></mxGeometry></mxCell><mxCell id="98" value="" style="endArrow=none;html=1;rounded=0;strokeColor=#0050EF;strokeWidth=3;fontSize=7;entryX=1;entryY=0.406;entryDx=0;entryDy=0;entryPerimeter=0;fillColor=#0050ef;" parent="1" edge="1"><mxGeometry width="50" height="50" relative="1" as="geometry"><mxPoint x="500" y="220" as="sourcePoint"/><mxPoint x="460" y="220" as="targetPoint"/><Array as="points"><mxPoint x="500" y="220.01"/></Array></mxGeometry></mxCell><mxCell id="99" value="" style="endArrow=none;html=1;rounded=0;fontSize=7;fillColor=#e51400;strokeColor=#E51400;strokeWidth=3;exitX=0.32;exitY=0.012;exitDx=0;exitDy=0;exitPerimeter=0;entryX=0.75;entryY=1;entryDx=0;entryDy=0;" parent="1" source="29" target="110" edge="1"><mxGeometry width="50" height="50" relative="1" as="geometry"><mxPoint x="580" y="200" as="sourcePoint"/><mxPoint x="580" y="100" as="targetPoint"/><Array as="points"><mxPoint x="580" y="100"/><mxPoint x="342" y="100"/></Array></mxGeometry></mxCell><mxCell id="100" value="" style="endArrow=none;html=1;rounded=0;fontSize=7;fillColor=#e51400;strokeColor=#E51400;strokeWidth=3;entryX=0.232;entryY=0.082;entryDx=0;entryDy=0;entryPerimeter=0;" parent="1" target="21" edge="1"><mxGeometry width="50" height="50" relative="1" as="geometry"><mxPoint x="580" y="164.16" as="sourcePoint"/><mxPoint x="650" y="164" as="targetPoint"/><Array as="points"/></mxGeometry></mxCell><mxCell id="104" value="" style="endArrow=none;html=1;rounded=0;strokeColor=#0050EF;strokeWidth=3;fontSize=7;fillColor=#0050ef;" parent="1" edge="1"><mxGeometry width="50" height="50" relative="1" as="geometry"><mxPoint x="520" y="116.25" as="sourcePoint"/><mxPoint x="520" y="96.25" as="targetPoint"/><Array as="points"><mxPoint x="520" y="80"/></Array></mxGeometry></mxCell><mxCell id="105" value="" style="endArrow=none;html=1;rounded=0;strokeColor=#0050EF;strokeWidth=3;fontSize=7;fillColor=#0050ef;startArrow=none;exitX=0.006;exitY=0.413;exitDx=0;exitDy=0;exitPerimeter=0;" parent="1" source="21" edge="1"><mxGeometry width="50" height="50" relative="1" as="geometry"><mxPoint x="560" y="149.73000000000002" as="sourcePoint"/><mxPoint x="520" y="180" as="targetPoint"/><Array as="points"/></mxGeometry></mxCell><mxCell id="106" value="" style="endArrow=none;html=1;rounded=0;fontSize=7;fillColor=#e51400;strokeColor=#E51400;strokeWidth=3;exitX=0.415;exitY=1.004;exitDx=0;exitDy=0;exitPerimeter=0;" parent="1" source="4" target="29" edge="1"><mxGeometry width="50" height="50" relative="1" as="geometry"><mxPoint x="410" y="324.28571428571445" as="sourcePoint"/><mxPoint x="530" y="220" as="targetPoint"/><Array as="points"><mxPoint x="378" y="300"/><mxPoint x="585" y="300"/></Array></mxGeometry></mxCell><mxCell id="108" value="" style="group;fillColor=#e3c800;fontColor=#000000;strokeColor=#B09500;" parent="1" vertex="1" connectable="0"><mxGeometry x="272.5" y="55" width="75" height="27.5" as="geometry"/></mxCell><mxCell id="109" value="中心板" style="rounded=0;whiteSpace=wrap;html=1;strokeColor=#457B9D;fontSize=9;fontColor=#1D3557;fillColor=#A8DADC;" parent="108" vertex="1"><mxGeometry width="75" height="27.499999999999996" as="geometry"/></mxCell><mxCell id="110" value="XT30" style="rounded=0;whiteSpace=wrap;html=1;strokeColor=#B20000;fontSize=9;fontColor=#ffffff;fillColor=#e51400;" parent="108" vertex="1"><mxGeometry x="53.12500000000001" width="21.875" height="27.499999999999996" as="geometry"/></mxCell><mxCell id="111" value="CAN" style="rounded=0;whiteSpace=wrap;html=1;strokeColor=#B09500;fontSize=9;fontColor=#000000;fillColor=#e3c800;" parent="108" vertex="1"><mxGeometry width="21.875" height="27.499999999999996" as="geometry"/></mxCell><mxCell id="112" value="CAN转接板" style="rounded=0;whiteSpace=wrap;html=1;strokeColor=#457B9D;fontSize=9;fontColor=#1D3557;fillColor=#A8DADC;" parent="1" vertex="1"><mxGeometry x="500" y="110" width="50" height="15" as="geometry"/></mxCell><mxCell id="113" value="CAN转接板" style="rounded=0;whiteSpace=wrap;html=1;strokeColor=#457B9D;fontSize=9;fontColor=#1D3557;fillColor=#A8DADC;" parent="1" vertex="1"><mxGeometry x="190" y="106.88" width="50" height="18.12" as="geometry"/></mxCell><mxCell id="116" value="" style="endArrow=none;html=1;rounded=0;strokeColor=#0050EF;strokeWidth=3;fontSize=7;fillColor=#0050ef;entryX=0.691;entryY=0.019;entryDx=0;entryDy=0;entryPerimeter=0;" parent="1" target="30" edge="1"><mxGeometry width="50" height="50" relative="1" as="geometry"><mxPoint x="520" y="180" as="sourcePoint"/><mxPoint x="520" y="198.75" as="targetPoint"/><Array as="points"><mxPoint x="520" y="125"/><mxPoint x="520" y="180"/></Array></mxGeometry></mxCell><mxCell id="118" value="" style="endArrow=none;html=1;rounded=0;fontSize=7;fillColor=#e51400;strokeColor=#E51400;strokeWidth=3;exitX=0.25;exitY=1;exitDx=0;exitDy=0;entryX=0.923;entryY=0.846;entryDx=0;entryDy=0;entryPerimeter=0;" parent="1" source="110" target="65" edge="1"><mxGeometry width="50" height="50" relative="1" as="geometry"><mxPoint x="393.5" y="180.53571428571422" as="sourcePoint"/><mxPoint x="120" y="100" as="targetPoint"/><Array as="points"><mxPoint x="331" y="100"/></Array></mxGeometry></mxCell><mxCell id="121" value="" style="group;fillColor=#0050EF;fontColor=#ffffff;strokeColor=#001DBC;" parent="1" vertex="1" connectable="0"><mxGeometry x="510" y="55" width="75" height="27.5" as="geometry"/></mxCell><mxCell id="122" value="中心板" style="rounded=0;whiteSpace=wrap;html=1;strokeColor=#457B9D;fontSize=9;fontColor=#1D3557;fillColor=#A8DADC;" parent="121" vertex="1"><mxGeometry width="75" height="27.499999999999996" as="geometry"/></mxCell><mxCell id="123" value="XT30" style="rounded=0;whiteSpace=wrap;html=1;strokeColor=#B20000;fontSize=9;fontColor=#ffffff;fillColor=#e51400;" parent="121" vertex="1"><mxGeometry x="53.12500000000001" width="21.875" height="27.499999999999996" as="geometry"/></mxCell><mxCell id="124" value="CAN" style="rounded=0;whiteSpace=wrap;html=1;strokeColor=#001DBC;fontSize=9;fontColor=#ffffff;fillColor=#0050ef;" parent="121" vertex="1"><mxGeometry width="21.875" height="27.499999999999996" as="geometry"/></mxCell><mxCell id="125" value="" style="endArrow=none;html=1;rounded=0;fontSize=7;fillColor=#e51400;strokeColor=#E51400;strokeWidth=3;entryX=0.5;entryY=0;entryDx=0;entryDy=0;exitX=0.657;exitY=0;exitDx=0;exitDy=0;exitPerimeter=0;" parent="1" source="110" target="123" edge="1"><mxGeometry width="50" height="50" relative="1" as="geometry"><mxPoint x="330" y="60" as="sourcePoint"/><mxPoint x="453.48" y="34.72999999999999" as="targetPoint"/><Array as="points"><mxPoint x="340" y="30"/><mxPoint x="574" y="30"/></Array></mxGeometry></mxCell><mxCell id="134" value="" style="endArrow=none;html=1;rounded=0;fontSize=7;fillColor=#e51400;strokeColor=#E51400;strokeWidth=3;exitX=0.75;exitY=0;exitDx=0;exitDy=0;entryX=1;entryY=0.5;entryDx=0;entryDy=0;" parent="1" source="123" target="145" edge="1"><mxGeometry width="50" height="50" relative="1" as="geometry"><mxPoint x="585" y="23.670000000000073" as="sourcePoint"/><mxPoint x="580" as="targetPoint"/><Array as="points"><mxPoint x="580" y="-36"/></Array></mxGeometry></mxCell><mxCell id="135" value="" style="endArrow=none;html=1;rounded=0;strokeColor=#0050EF;strokeWidth=3;fontSize=7;fillColor=#0050ef;exitX=0.5;exitY=0;exitDx=0;exitDy=0;entryX=0.661;entryY=0.063;entryDx=0;entryDy=0;entryPerimeter=0;" parent="1" source="124" target="146" edge="1"><mxGeometry width="50" height="50" relative="1" as="geometry"><mxPoint x="520" y="50" as="sourcePoint"/><mxPoint x="400" y="-50" as="targetPoint"/><Array as="points"><mxPoint x="521" y="-80"/><mxPoint x="410" y="-80"/><mxPoint x="400" y="-80"/><mxPoint x="400" y="-70"/></Array></mxGeometry></mxCell><mxCell id="138" value="2*大前伸2006电机+c610电调" style="ellipse;whiteSpace=wrap;html=1;aspect=fixed;strokeColor=#457B9D;fontSize=9;fontColor=#1D3557;fillColor=#A8DADC;" parent="1" vertex="1"><mxGeometry x="610" width="50" height="50" as="geometry"/></mxCell><mxCell id="139" value="" style="endArrow=none;html=1;rounded=0;strokeColor=#0050EF;strokeWidth=3;fontSize=7;fillColor=#0050ef;exitX=0.018;exitY=0.424;exitDx=0;exitDy=0;exitPerimeter=0;" parent="1" source="138" edge="1"><mxGeometry width="50" height="50" relative="1" as="geometry"><mxPoint x="640" y="17.61" as="sourcePoint"/><mxPoint x="520" y="20" as="targetPoint"/><Array as="points"/></mxGeometry></mxCell><mxCell id="140" value="" style="endArrow=none;html=1;rounded=0;fontSize=7;fillColor=#e51400;strokeColor=#E51400;strokeWidth=3;entryX=-0.004;entryY=0.66;entryDx=0;entryDy=0;entryPerimeter=0;" parent="1" target="138" edge="1"><mxGeometry width="50" height="50" relative="1" as="geometry"><mxPoint x="580" y="33" as="sourcePoint"/><mxPoint x="650" y="24" as="targetPoint"/><Array as="points"/></mxGeometry></mxCell><mxCell id="141" value="2*小前伸2006电机+c610电调" style="ellipse;whiteSpace=wrap;html=1;aspect=fixed;strokeColor=#457B9D;fontSize=9;fontColor=#1D3557;fillColor=#A8DADC;" parent="1" vertex="1"><mxGeometry x="599.38" y="-140" width="50" height="50" as="geometry"/></mxCell><mxCell id="143" value="" style="group;fillColor=#e3c800;fontColor=#000000;strokeColor=#B09500;" parent="1" vertex="1" connectable="0"><mxGeometry x="385" y="-60" width="80" height="47" as="geometry"/></mxCell><mxCell id="144" value="中心板" style="rounded=0;whiteSpace=wrap;html=1;strokeColor=#457B9D;fontSize=9;fontColor=#1D3557;fillColor=#A8DADC;" parent="143" vertex="1"><mxGeometry width="80" height="46.99999999999999" as="geometry"/></mxCell><mxCell id="145" value="XT30" style="rounded=0;whiteSpace=wrap;html=1;strokeColor=#B20000;fontSize=9;fontColor=#ffffff;fillColor=#e51400;" parent="143" vertex="1"><mxGeometry x="56.66666666666667" width="23.333333333333332" height="46.99999999999999" as="geometry"/></mxCell><mxCell id="146" value="CAN2" style="rounded=0;whiteSpace=wrap;html=1;strokeColor=#001DBC;fontSize=9;fontColor=#ffffff;fillColor=#0050ef;" parent="143" vertex="1"><mxGeometry width="23.33" height="20" as="geometry"/></mxCell><mxCell id="147" value="CAN3" style="rounded=0;whiteSpace=wrap;html=1;strokeColor=#B09500;fontSize=9;fontColor=#000000;fillColor=#e3c800;" parent="143" vertex="1"><mxGeometry y="27" width="23.33" height="20" as="geometry"/></mxCell><mxCell id="148" value="" style="endArrow=none;html=1;rounded=0;fontSize=7;fillColor=#e51400;strokeColor=#E51400;strokeWidth=3;exitX=0.75;exitY=0;exitDx=0;exitDy=0;entryX=0.057;entryY=0.698;entryDx=0;entryDy=0;entryPerimeter=0;" parent="1" source="145" target="141" edge="1"><mxGeometry width="50" height="50" relative="1" as="geometry"><mxPoint x="578.7499999999998" y="-104.83999999999995" as="sourcePoint"/><mxPoint x="648.7499999999998" y="-105.00000000000003" as="targetPoint"/><Array as="points"><mxPoint x="459" y="-105"/></Array></mxGeometry></mxCell><mxCell id="149" value="" style="endArrow=none;html=1;rounded=0;strokeColor=#0050EF;strokeWidth=3;fontSize=7;fillColor=#0050ef;entryX=0.25;entryY=0;entryDx=0;entryDy=0;" parent="1" source="141" target="146" edge="1"><mxGeometry width="50" height="50" relative="1" as="geometry"><mxPoint x="560.9375" y="-110" as="sourcePoint"/><mxPoint x="560" y="-151.25" as="targetPoint"/><Array as="points"><mxPoint x="390" y="-115"/></Array></mxGeometry></mxCell><mxCell id="150" value="" style="endArrow=none;html=1;rounded=0;fontSize=7;fillColor=#e51400;strokeColor=#E3C800;strokeWidth=3;entryX=0.5;entryY=0;entryDx=0;entryDy=0;exitX=0.5;exitY=1;exitDx=0;exitDy=0;" parent="1" source="111" target="5" edge="1"><mxGeometry width="50" height="50" relative="1" as="geometry"><mxPoint x="290" y="131.41000000000008" as="sourcePoint"/><mxPoint x="360" y="131.25" as="targetPoint"/><Array as="points"><mxPoint x="283" y="140"/><mxPoint x="385" y="140"/></Array></mxGeometry></mxCell><mxCell id="152" value="" style="endArrow=none;html=1;rounded=0;fontSize=7;fillColor=#e51400;strokeColor=#E3C800;strokeWidth=3;entryX=0.5;entryY=0;entryDx=0;entryDy=0;exitX=0;exitY=0.5;exitDx=0;exitDy=0;" parent="1" source="147" target="111" edge="1"><mxGeometry width="50" height="50" relative="1" as="geometry"><mxPoint x="264.1875" y="-86.25" as="sourcePoint"/><mxPoint x="365.7500000000002" y="11.25" as="targetPoint"/><Array as="points"><mxPoint x="283" y="-23"/></Array></mxGeometry></mxCell><mxCell id="153" value="" style="group;fillColor=#e3c800;fontColor=#000000;strokeColor=#B09500;" parent="1" vertex="1" connectable="0"><mxGeometry x="280" y="-92.5" width="75" height="27.5" as="geometry"/></mxCell><mxCell id="154" value="中心板" style="rounded=0;whiteSpace=wrap;html=1;strokeColor=#457B9D;fontSize=9;fontColor=#1D3557;fillColor=#A8DADC;" parent="153" vertex="1"><mxGeometry width="75" height="27.499999999999996" as="geometry"/></mxCell><mxCell id="155" value="XT30" style="rounded=0;whiteSpace=wrap;html=1;strokeColor=#B20000;fontSize=9;fontColor=#ffffff;fillColor=#e51400;" parent="153" vertex="1"><mxGeometry x="53.12500000000001" width="21.875" height="27.499999999999996" as="geometry"/></mxCell><mxCell id="156" value="CAN" style="rounded=0;whiteSpace=wrap;html=1;strokeColor=#B09500;fontSize=9;fontColor=#000000;fillColor=#e3c800;" parent="153" vertex="1"><mxGeometry width="21.875" height="27.499999999999996" as="geometry"/></mxCell><mxCell id="159" value="" style="endArrow=none;html=1;rounded=0;fontSize=7;fillColor=#e51400;strokeColor=#E3C800;strokeWidth=3;entryX=0.5;entryY=0;entryDx=0;entryDy=0;" parent="1" edge="1"><mxGeometry width="50" height="50" relative="1" as="geometry"><mxPoint x="283" y="-64" as="sourcePoint"/><mxPoint x="283.4375" y="-5" as="targetPoint"/><Array as="points"><mxPoint x="283" y="-64"/></Array></mxGeometry></mxCell><mxCell id="160" value="" style="endArrow=none;html=1;rounded=0;fontSize=7;fillColor=#e51400;strokeColor=#E51400;strokeWidth=3;" parent="1" edge="1"><mxGeometry width="50" height="50" relative="1" as="geometry"><mxPoint x="340" y="32.5" as="sourcePoint"/><mxPoint x="340" y="-72.5" as="targetPoint"/><Array as="points"/></mxGeometry></mxCell><mxCell id="161" value="云台yaw，pitch2*2006电机+c610电调" style="ellipse;whiteSpace=wrap;html=1;aspect=fixed;strokeColor=#457B9D;fontSize=9;fontColor=#1D3557;fillColor=#A8DADC;" parent="1" vertex="1"><mxGeometry x="170" y="-5" width="50" height="50" as="geometry"/></mxCell><mxCell id="162" value="" style="endArrow=none;html=1;rounded=0;fontSize=7;fillColor=#e51400;strokeColor=#E3C800;strokeWidth=3;entryX=0.98;entryY=0.299;entryDx=0;entryDy=0;entryPerimeter=0;exitX=0.131;exitY=0.02;exitDx=0;exitDy=0;exitPerimeter=0;" parent="1" source="111" target="161" edge="1"><mxGeometry width="50" height="50" relative="1" as="geometry"><mxPoint x="280" y="10" as="sourcePoint"/><mxPoint x="293.4375" y="5" as="targetPoint"/><Array as="points"><mxPoint x="275" y="10"/></Array></mxGeometry></mxCell><mxCell id="163" value="" style="endArrow=none;html=1;rounded=0;fontSize=7;fillColor=#e51400;strokeColor=#E51400;strokeWidth=3;entryX=0.98;entryY=0.299;entryDx=0;entryDy=0;entryPerimeter=0;exitX=0.201;exitY=0.013;exitDx=0;exitDy=0;exitPerimeter=0;" parent="1" source="110" edge="1"><mxGeometry width="50" height="50" relative="1" as="geometry"><mxPoint x="330" y="30" as="sourcePoint"/><mxPoint x="220" y="30.000000000000046" as="targetPoint"/><Array as="points"><mxPoint x="330" y="30"/></Array></mxGeometry></mxCell><mxCell id="164" value="" style="endArrow=none;html=1;rounded=0;fontSize=7;fillColor=#e51400;strokeColor=#E3C800;strokeWidth=3;entryX=0;entryY=0.5;entryDx=0;entryDy=0;" parent="1" target="156" edge="1"><mxGeometry width="50" height="50" relative="1" as="geometry"><mxPoint x="213.75" y="-78.92" as="sourcePoint"/><mxPoint x="273.75" y="-78.92" as="targetPoint"/><Array as="points"><mxPoint x="213.75" y="-78.92"/></Array></mxGeometry></mxCell><mxCell id="165" value="" style="endArrow=none;html=1;rounded=0;fontSize=7;fillColor=#e51400;strokeColor=#E51400;strokeWidth=3;entryX=1;entryY=0.46;entryDx=0;entryDy=0;entryPerimeter=0;" parent="1" target="62" edge="1"><mxGeometry width="50" height="50" relative="1" as="geometry"><mxPoint x="340" y="-90" as="sourcePoint"/><mxPoint x="340" y="-191.25" as="targetPoint"/><Array as="points"><mxPoint x="340" y="-90"/><mxPoint x="340" y="-100"/></Array></mxGeometry></mxCell><mxCell id="166" value="" style="endArrow=none;html=1;rounded=0;fontSize=7;fillColor=#e51400;strokeColor=#E51400;strokeWidth=3;entryX=0.36;entryY=0.979;entryDx=0;entryDy=0;entryPerimeter=0;exitX=0.644;exitY=-0.004;exitDx=0;exitDy=0;exitPerimeter=0;" parent="1" source="155" target="13" edge="1"><mxGeometry width="50" height="50" relative="1" as="geometry"><mxPoint x="347.82" y="-102.5" as="sourcePoint"/><mxPoint x="347.5" y="-150" as="targetPoint"/><Array as="points"/></mxGeometry></mxCell><mxCell id="11" value="&lt;font style=&quot;font-size: 10px;&quot;&gt;中继C板&lt;/font&gt;" style="rounded=0;whiteSpace=wrap;html=1;strokeColor=#457B9D;fontColor=#1D3557;fillColor=#A8DADC;" parent="1" vertex="1"><mxGeometry x="320" y="-207.5" width="60" height="50" as="geometry"/></mxCell><mxCell id="12" value="&lt;font style=&quot;font-size: 9px;&quot;&gt;GPIO&lt;/font&gt;" style="rounded=0;whiteSpace=wrap;html=1;strokeColor=#432D57;fontColor=#ffffff;fillColor=#76608a;" parent="1" vertex="1"><mxGeometry x="358.82" y="-207.5" width="21.176470588235293" height="13.63636363636364" as="geometry"/></mxCell><mxCell id="13" value="&lt;font style=&quot;font-size: 9px;&quot;&gt;XT30&lt;/font&gt;" style="rounded=0;whiteSpace=wrap;html=1;strokeColor=#B20000;fontColor=#ffffff;fillColor=#e51400;" parent="1" vertex="1"><mxGeometry x="339.4117647058824" y="-171.13636363636363" width="21.176470588235293" height="13.63636363636364" as="geometry"/></mxCell><mxCell id="14" value="&lt;font style=&quot;font-size: 9px;&quot;&gt;CAN1&lt;/font&gt;" style="rounded=0;whiteSpace=wrap;html=1;strokeColor=#B09500;fontColor=#000000;fillColor=#e3c800;" parent="1" vertex="1"><mxGeometry x="320.0035294117647" y="-207.5" width="21.176470588235293" height="13.63636363636364" as="geometry"/></mxCell><mxCell id="168" value="" style="endArrow=none;html=1;rounded=0;fontSize=7;fillColor=#e51400;strokeColor=#E3C800;strokeWidth=3;entryX=0.5;entryY=0;entryDx=0;entryDy=0;exitX=0;exitY=0.15;exitDx=0;exitDy=0;exitPerimeter=0;" parent="1" source="11" edge="1"><mxGeometry width="50" height="50" relative="1" as="geometry"><mxPoint x="210" y="-150" as="sourcePoint"/><mxPoint x="290.4375" y="-92.5" as="targetPoint"/><Array as="points"><mxPoint x="290" y="-200"/></Array></mxGeometry></mxCell><mxCell id="169" value="" style="endArrow=none;html=1;strokeColor=#647687;strokeWidth=3;fontSize=7;exitX=0;exitY=0.5;exitDx=0;exitDy=0;fillColor=#a0522d;rounded=0;entryX=1;entryY=0.5;entryDx=0;entryDy=0;" parent="1" target="67" edge="1"><mxGeometry width="50" height="50" relative="1" as="geometry"><mxPoint x="310" y="184.82999999999998" as="sourcePoint"/><mxPoint x="300" y="185" as="targetPoint"/></mxGeometry></mxCell><mxCell id="170" value="" style="endArrow=none;html=1;strokeColor=#647687;strokeWidth=3;fontSize=7;entryX=0.5;entryY=1;entryDx=0;entryDy=0;fillColor=#a0522d;rounded=0;exitX=0.5;exitY=0;exitDx=0;exitDy=0;" parent="1" source="12" target="68" edge="1"><mxGeometry width="50" height="50" relative="1" as="geometry"><mxPoint x="369" y="-210" as="sourcePoint"/><mxPoint x="360.59" y="-219.82999999999998" as="targetPoint"/></mxGeometry></mxCell><mxCell id="171" value="" style="endArrow=none;html=1;strokeColor=#647687;strokeWidth=3;fontSize=7;exitX=0;exitY=0.5;exitDx=0;exitDy=0;fillColor=#a0522d;rounded=0;entryX=1;entryY=0.5;entryDx=0;entryDy=0;" parent="1" target="66" edge="1"><mxGeometry width="50" height="50" relative="1" as="geometry"><mxPoint x="310" y="264.91999999999996" as="sourcePoint"/><mxPoint x="295" y="265.0899999999998" as="targetPoint"/></mxGeometry></mxCell><mxCell id="172" value="" style="endArrow=none;html=1;rounded=0;fontSize=7;strokeWidth=3;strokeColor=#2A2A2A;" parent="1" edge="1"><mxGeometry width="50" height="50" relative="1" as="geometry"><mxPoint x="213.75" y="570" as="sourcePoint"/><mxPoint x="264" y="515" as="targetPoint"/><Array as="points"><mxPoint x="214" y="535"/><mxPoint x="264" y="535"/></Array></mxGeometry></mxCell><mxCell id="173" value="" style="endArrow=none;html=1;rounded=0;fontSize=7;fillColor=#e3c800;strokeColor=#2A2A2A;strokeWidth=3;exitX=0.78;exitY=0.033;exitDx=0;exitDy=0;exitPerimeter=0;" parent="1" source="37" edge="1"><mxGeometry width="50" height="50" relative="1" as="geometry"><mxPoint x="280" y="540" as="sourcePoint"/><mxPoint x="280" y="515" as="targetPoint"/><Array as="points"/></mxGeometry></mxCell><mxCell id="174" value="" style="endArrow=none;html=1;rounded=0;fontSize=7;fillColor=#e3c800;strokeColor=#2A2A2A;strokeWidth=3;exitX=0.78;exitY=0.033;exitDx=0;exitDy=0;exitPerimeter=0;" parent="1" edge="1"><mxGeometry width="50" height="50" relative="1" as="geometry"><mxPoint x="317.3" y="550.99" as="sourcePoint"/><mxPoint x="317.7" y="515" as="targetPoint"/><Array as="points"/></mxGeometry></mxCell><mxCell id="175" value="" style="endArrow=none;html=1;rounded=0;fontSize=7;fillColor=#e3c800;strokeColor=#2A2A2A;strokeWidth=3;exitX=0;exitY=0.75;exitDx=0;exitDy=0;entryX=0.5;entryY=1;entryDx=0;entryDy=0;" parent="1" source="50" target="41" edge="1"><mxGeometry width="50" height="50" relative="1" as="geometry"><mxPoint x="105" y="510" as="sourcePoint"/><mxPoint x="104.74" y="33" as="targetPoint"/><Array as="points"><mxPoint x="105" y="498"/></Array></mxGeometry></mxCell><mxCell id="176" value="" style="endArrow=none;html=1;rounded=0;fontSize=7;fillColor=#e3c800;strokeColor=#2A2A2A;strokeWidth=3;entryX=0.183;entryY=1.006;entryDx=0;entryDy=0;entryPerimeter=0;exitX=0;exitY=0.5;exitDx=0;exitDy=0;" parent="1" source="50" target="43" edge="1"><mxGeometry width="50" height="50" relative="1" as="geometry"><mxPoint x="130" y="470" as="sourcePoint"/><mxPoint x="130" as="targetPoint"/><Array as="points"><mxPoint x="130" y="480"/><mxPoint x="130.2" y="443.01"/><mxPoint x="130" y="30"/><mxPoint x="163" y="30"/></Array></mxGeometry></mxCell><mxCell id="21" value="2*抬升3508电机+c620电调" style="ellipse;whiteSpace=wrap;html=1;aspect=fixed;strokeColor=#457B9D;fontSize=9;fontColor=#1D3557;fillColor=#A8DADC;" parent="1" vertex="1"><mxGeometry x="611.25" y="160.63" width="48.75" height="48.75" as="geometry"/></mxCell><mxCell id="178" value="&lt;font style=&quot;font-size: 10px;&quot;&gt;抬升拖链&lt;/font&gt;" style="rounded=1;whiteSpace=wrap;html=1;dashed=1;strokeColor=#24B3A9;strokeWidth=4;fontSize=18;fontColor=#000000;fillColor=none;fontStyle=1" parent="1" vertex="1"><mxGeometry x="80" y="130" width="520" height="30" as="geometry"/></mxCell><mxCell id="181" value="" style="endArrow=none;dashed=1;html=1;dashPattern=1 3;strokeWidth=3;rounded=0;strokeColor=#24B3A9;fontSize=10;fontColor=#000000;jumpSize=5;endSize=8;targetPerimeterSpacing=0;" parent="1" edge="1"><mxGeometry width="50" height="50" relative="1" as="geometry"><mxPoint x="360" y="-40" as="sourcePoint"/><mxPoint x="360" y="-40" as="targetPoint"/><Array as="points"><mxPoint x="360" y="-10"/><mxPoint x="598" y="-10"/><mxPoint x="597.5" y="10"/><mxPoint x="347.5" y="10"/><mxPoint x="348" y="-40"/></Array></mxGeometry></mxCell><mxCell id="182" value="&lt;b&gt;前伸拖链&lt;/b&gt;" style="text;html=1;align=center;verticalAlign=middle;resizable=0;points=[];autosize=1;strokeColor=none;fillColor=none;fontSize=10;fontColor=#000000;" parent="1" vertex="1"><mxGeometry x="430" y="-15" width="60" height="30" as="geometry"/></mxCell><mxCell id="183" value="" style="endArrow=none;html=1;rounded=0;fontSize=7;fillColor=#e3c800;strokeColor=#008A00;strokeWidth=3;exitX=-0.017;exitY=0.401;exitDx=0;exitDy=0;exitPerimeter=0;entryX=0.5;entryY=1;entryDx=0;entryDy=0;" edge="1" parent="1" source="50" target="8"><mxGeometry width="50" height="50" relative="1" as="geometry"><mxPoint x="213.75" y="465" as="sourcePoint"/><mxPoint x="290" y="290" as="targetPoint"/><Array as="points"><mxPoint x="200" y="473"/><mxPoint x="200" y="430"/><mxPoint x="200" y="290"/><mxPoint x="445" y="290"/></Array></mxGeometry></mxCell></root></mxGraphModel></diagram></mxfile>